<?xml version="1.0" encoding="UTF-8"?>
<!DOCTYPE svg PUBLIC "-//W3C//DTD SVG 1.1//EN" "http://www.w3.org/Graphics/SVG/1.1/DTD/svg11.dtd">
<svg version="1.1" xmlns="http://www.w3.org/2000/svg" xmlns:xlink="http://www.w3.org/1999/xlink" x="0" y="0" width="516.242" height="376" viewBox="0, 0, 516.242, 376">
  <g id="Layer_1">
    <g>
      <path d="M34.486,133.69 L237.941,133.69 L237.941,325.715 L34.486,325.715 L34.486,133.69 z" fill="#07C84C"/>
      <path d="M34.486,133.69 L237.941,133.69 L237.941,325.715 L34.486,325.715 L34.486,133.69 z" fill-opacity="0" stroke="#FFFFFF" stroke-width="12"/>
    </g>
    <g>
      <path d="M136.259,240.772 L147.779,240.772 Q160.835,240.772 171.075,236.676 Q181.315,232.58 188.355,225.412 Q195.395,218.244 199.107,208.388 Q202.819,198.532 202.819,186.756 Q202.819,175.236 198.979,165.252 Q195.139,155.268 188.099,148.1 Q181.059,140.932 170.819,136.836 Q160.579,132.74 147.779,132.74 L136.259,132.74 z M86.083,90.244 L160.323,90.244 Q180.035,90.244 197.315,98.18 Q214.595,106.116 227.523,119.3 Q240.451,132.484 247.875,150.02 Q255.299,167.556 255.299,186.756 Q255.299,205.7 248.003,223.236 Q240.707,240.772 227.779,254.084 Q214.851,267.396 197.571,275.332 Q180.291,283.268 160.323,283.268 L86.083,283.268 z" fill="#000000"/>
      <path d="M426.307,154.756 Q408.899,133.508 383.299,133.508 Q372.035,133.508 362.435,137.604 Q352.835,141.7 345.923,148.74 Q339.011,155.78 335.043,165.508 Q331.075,175.236 331.075,186.5 Q331.075,198.02 335.043,207.748 Q339.011,217.476 346.051,224.644 Q353.091,231.812 362.563,235.908 Q372.035,240.004 383.043,240.004 Q407.107,240.004 426.307,219.524 L426.307,278.916 L421.187,280.708 Q409.667,284.804 399.683,286.724 Q389.699,288.644 379.971,288.644 Q360.003,288.644 341.699,281.092 Q323.395,273.54 309.443,259.844 Q295.491,246.148 287.043,227.332 Q278.595,208.516 278.595,186.244 Q278.595,163.972 286.915,145.412 Q295.235,126.852 309.187,113.412 Q323.139,99.972 341.571,92.42 Q360.003,84.868 380.227,84.868 Q391.747,84.868 402.883,87.3 Q414.019,89.732 426.307,94.852 z" fill="#000000"/>
      <path d="M140.111,243.26 L151.631,243.26 Q164.687,243.26 174.927,239.164 Q185.167,235.068 192.207,227.9 Q199.247,220.732 202.959,210.876 Q206.671,201.02 206.671,189.244 Q206.671,177.724 202.831,167.74 Q198.991,157.756 191.951,150.588 Q184.911,143.42 174.671,139.324 Q164.431,135.228 151.631,135.228 L140.111,135.228 z M89.935,92.732 L164.175,92.732 Q183.887,92.732 201.167,100.668 Q218.447,108.604 231.375,121.788 Q244.303,134.972 251.727,152.508 Q259.151,170.044 259.151,189.244 Q259.151,208.188 251.855,225.724 Q244.559,243.26 231.631,256.572 Q218.703,269.884 201.423,277.82 Q184.143,285.756 164.175,285.756 L89.935,285.756 z M430.159,157.244 Q412.751,135.996 387.151,135.996 Q375.887,135.996 366.287,140.092 Q356.687,144.188 349.775,151.228 Q342.863,158.268 338.895,167.996 Q334.927,177.724 334.927,188.988 Q334.927,200.508 338.895,210.236 Q342.863,219.964 349.903,227.132 Q356.943,234.3 366.415,238.396 Q375.887,242.492 386.895,242.492 Q410.959,242.492 430.159,222.012 L430.159,281.404 L425.039,283.196 Q413.519,287.292 403.535,289.212 Q393.551,291.132 383.823,291.132 Q363.855,291.132 345.551,283.58 Q327.247,276.028 313.295,262.332 Q299.343,248.636 290.895,229.82 Q282.447,211.004 282.447,188.732 Q282.447,166.46 290.767,147.9 Q299.087,129.34 313.039,115.9 Q326.991,102.46 345.423,94.908 Q363.855,87.356 384.079,87.356 Q395.599,87.356 406.735,89.788 Q417.871,92.22 430.159,97.34 z" fill-opacity="0" stroke="#FFFFFF" stroke-width="10"/>
    </g>
  </g>
</svg>
